<svg width="45" height="45" viewBox="0 0 45 45" fill="none" xmlns="http://www.w3.org/2000/svg">
<path fill-rule="evenodd" clip-rule="evenodd" d="M18.5186 28.5116C11.3111 28.5116 5.15552 29.601 5.15552 33.966C5.15552 38.331 11.2736 39.4598 18.5186 39.4598C25.728 39.4598 31.8818 38.3685 31.8818 34.0054C31.8818 29.6423 25.7655 28.5116 18.5186 28.5116Z" stroke="#8C98AB" stroke-width="3" stroke-linecap="round" stroke-linejoin="round"/>
<path fill-rule="evenodd" clip-rule="evenodd" d="M18.5186 22.2861C23.2492 22.2861 27.0836 18.4517 27.0836 13.7211C27.0836 8.99044 23.2492 5.15607 18.5186 5.15607C13.7898 5.15607 9.95538 8.99044 9.95538 13.7211C9.93856 18.4348 13.7448 22.2692 18.4604 22.2861H18.5186Z" stroke="#8C98AB" stroke-width="3" stroke-linecap="round" stroke-linejoin="round"/>
<path d="M36.0068 16.2546V23.7733" stroke="#8C98AB" stroke-width="3" stroke-linecap="round" stroke-linejoin="round"/>
<path d="M39.8431 20.0137H32.1743" stroke="#8C98AB" stroke-width="3" stroke-linecap="round" stroke-linejoin="round"/>
</svg>
