<svg width="45" height="45" viewBox="0 0 45 45" fill="none" xmlns="http://www.w3.org/2000/svg">
<path fill-rule="evenodd" clip-rule="evenodd" d="M17.984 28.5127C24.9009 28.5127 30.8128 29.5609 30.8128 33.7477C30.8128 37.9346 24.9403 39.0127 17.984 39.0127C11.0653 39.0127 5.15527 37.974 5.15527 33.7852C5.15527 29.5965 11.0259 28.5127 17.984 28.5127Z" stroke="#8C98AB" stroke-width="3" stroke-linecap="round" stroke-linejoin="round"/>
<path fill-rule="evenodd" clip-rule="evenodd" d="M17.984 22.5371C13.4428 22.5371 9.76025 18.8565 9.76025 14.3152C9.76025 9.77399 13.4428 6.09337 17.984 6.09337C22.5234 6.09337 26.2059 9.77399 26.2059 14.3152C26.2228 18.8396 22.5665 22.5202 18.0421 22.5371H17.984Z" stroke="#8C98AB" stroke-width="3" stroke-linecap="round" stroke-linejoin="round"/>
<path d="M30.9058 20.403C33.9076 19.9811 36.2195 17.4049 36.2251 14.2867C36.2251 11.2136 33.9845 8.66362 31.0464 8.18175" stroke="#8C98AB" stroke-width="3" stroke-linecap="round" stroke-linejoin="round"/>
<path d="M34.8665 27.6229C37.7746 28.056 39.8052 29.076 39.8052 31.176C39.8052 32.6216 38.849 33.5591 37.304 34.146" stroke="#8C98AB" stroke-width="3" stroke-linecap="round" stroke-linejoin="round"/>
</svg>
